<?xml version="1.0" encoding="UTF-8"?>
<svg width="24px" height="25px" viewBox="0 0 24 25" version="1.1" xmlns="http://www.w3.org/2000/svg" xmlns:xlink="http://www.w3.org/1999/xlink">
    <title>Health_Check_Small</title>
    <g id="Health_Check_Small" stroke="none" stroke-width="1" fill="none" fill-rule="evenodd">
        <g id="Group" transform="translate(1.000000, 0.500000)">
            <path d="M10.9663643,23.9962955 L10.9162185,23.9852634 L10.7748863,23.9417057 L10.5823308,23.8703051 L10.3427488,23.7720398 L10.0603372,23.647888 L9.73929293,23.498828 L9.19447093,23.2306746 L8.79520632,23.0236234 L8.1527267,22.6730686 L7.70147229,22.4141399 L7.2367665,22.1361722 L6.76280623,21.8401435 L6.28378836,21.5270321 L5.80390977,21.1978162 C4.28736152,20.1308328 2.8209949,18.8363241 2.00452753,17.4540705 C1.05725639,15.8503702 0.445715327,13.2652057 0.169904332,9.69857716 L0.10794596,8.78647286 L0.0599763405,7.83347421 L0.0259954741,6.83958123 L0.00600336058,5.80479391 L9.59232693e-14,4.72911225 L0.00221588245,4.19188355 C0.00321333202,4.04890777 0.10267251,3.92983387 0.235347675,3.89946883 L0.316910033,3.89234274 L0.329641933,3.89325341 C2.15982571,4.06366804 3.97489488,3.81716095 5.77484943,3.15373214 C7.41629189,2.54872787 8.93622852,1.64334197 10.3346593,0.437574467 L10.6817605,0.129902283 C10.7492149,0.0684361333 10.8293177,0.0286637935 10.9131499,0.0107670134 L11.0029298,-3.55271368e-14 C11.0876387,0.00341949274 11.1720551,0.0286801682 11.2469122,0.075671497 L11.3182395,0.129902283 L11.6653407,0.437574467 C13.0637715,1.64334197 14.5837081,2.54872787 16.2251506,3.15373214 C17.8866471,3.76612796 19.5610223,4.02327688 21.2482763,3.92517889 L21.68309,3.89234274 L21.7646523,3.89946883 C21.875215,3.92477303 21.9627109,4.01168061 21.9893823,4.12268752 L21.9977841,4.19188355 L22,4.72911225 L21.9939966,5.80479391 L21.9740045,6.83958123 L21.9400237,7.83347421 L21.892054,8.78647286 L21.8300957,9.69857716 C21.5542847,13.2652057 20.9427436,15.8503702 19.9954725,17.4540705 C19.2334363,18.7441739 17.9052656,19.9578417 16.4985531,20.9814273 L16.1960902,21.1978162 L15.7162116,21.5270321 L15.2371938,21.8401435 L14.7632335,22.1361722 L14.2985277,22.4141399 L13.6280019,22.7950875 L13.2047937,23.0236234 L12.8055291,23.2306746 L12.2607071,23.498828 L11.9396628,23.647888 L11.6572512,23.7720398 L11.4176692,23.8703051 L11.2251137,23.9417057 L11.0837815,23.9852634 C11.0456743,23.9950335 11.0168039,24 10.9978696,24 L10.9663643,23.9962955 Z" id="Path" fill="#078A09"></path>
            <path d="M13.9582992,4.90402046 C14.1898362,4.90402046 14.3994181,4.99829654 14.5511391,5.15061118 C14.7031421,5.30320906 14.7970915,5.51403941 14.7970915,5.7468776 L14.7970915,5.7468776 L14.7970915,16.175449 C14.7970915,16.4082872 14.7031421,16.6191176 14.5511391,16.7717155 C14.3994181,16.9240301 14.1898362,17.0183062 13.9582992,17.0183062 L13.9582992,17.0183062 L8.73588384,17.0183062 C8.5043468,17.0183062 8.29476493,16.9240301 8.14304398,16.7717155 C7.99104089,16.6191176 7.89709152,16.4082872 7.89709152,16.175449 C7.89709152,15.9426108 7.99104089,15.7317805 8.14304398,15.5791826 C8.29476493,15.426868 8.5043468,15.3325919 8.73588384,15.3325919 L8.73588384,15.3325919 L13.1195069,15.3325919 L13.1195069,5.7468776 C13.1195069,5.51403941 13.2134562,5.30320906 13.3654593,5.15061118 C13.5171803,4.99829654 13.7267622,4.90402046 13.9582992,4.90402046 Z" id="Checkmark" stroke="#026CDF" stroke-width="0.4" fill="#FFFFFF" transform="translate(11.347092, 10.961163) rotate(38.400000) translate(-11.347092, -10.961163) "></path>
        </g>
    </g>
</svg>